<?xml version="1.0" standalone="no"?>
<!DOCTYPE svg PUBLIC "-//W3C//DTD SVG 20010904//EN"
 "http://www.w3.org/TR/2001/REC-SVG-20010904/DTD/svg10.dtd">
<svg version="1.0" xmlns="http://www.w3.org/2000/svg"
 width="740.000000pt" height="740.000000pt" viewBox="0 0 740.000000 740.000000"
 preserveAspectRatio="xMidYMid meet">
<metadata>
Created by potrace 1.16, written by Peter Selinger 2001-2019
</metadata>
<g transform="translate(0.000000,740.000000) scale(0.100000,-0.100000)"
fill="#000000" stroke="none">
<path d="M0 3700 l0 -3700 3700 0 3700 0 0 3700 0 3700 -3700 0 -3700 0 0
-3700z m2901 1513 c44 -42 79 -82 79 -89 0 -19 -23 -29 -144 -59 -148 -37
-151 -34 -96 106 23 57 44 107 46 111 13 20 42 2 115 -69z m1945 -141 c81 -65
43 -182 -58 -182 -95 0 -139 109 -70 171 38 34 94 39 128 11z m-480 -42 c83
-29 132 -60 191 -123 57 -60 130 -195 120 -221 -13 -35 -38 -14 -78 65 -50
101 -113 166 -205 210 -60 29 -82 34 -164 37 -91 4 -104 2 -300 -53 -113 -31
-389 -108 -615 -170 -796 -220 -915 -255 -957 -276 -63 -32 -141 -112 -172
-175 -40 -81 -45 -136 -31 -318 7 -89 11 -164 8 -168 -6 -10 -40 -10 -46 0 -3
4 -10 84 -17 178 -14 192 -8 237 38 332 33 69 119 158 187 194 28 15 154 56
280 92 371 104 1498 414 1525 420 47 9 178 -4 236 -24z m-1743 -78 c31 -32 57
-64 57 -72 0 -20 -110 -130 -130 -130 -18 0 -130 110 -130 128 0 15 119 132
135 132 6 0 36 -26 68 -58z m2191 -378 c4 -10 -48 -111 -139 -272 -80 -140
-144 -256 -143 -258 2 -1 56 4 122 12 152 19 150 21 141 -100 -8 -102 -17
-121 -47 -105 -18 10 -20 18 -16 80 6 81 21 76 -156 54 -65 -8 -123 -12 -128
-9 -6 4 -8 19 -6 35 3 19 0 29 -8 29 -27 0 -24 23 8 72 18 29 38 61 44 73 6
11 17 19 24 17 11 -3 11 0 1 12 -11 13 -10 17 3 22 9 3 13 11 9 18 -3 6 3 3
14 -7 18 -15 22 -16 32 -3 7 8 9 21 5 28 -4 7 -3 10 1 5 5 -4 41 48 81 115 50
85 68 124 59 126 -8 2 -108 -8 -224 -22 -115 -14 -214 -26 -220 -26 -6 0 -11
-19 -11 -45 0 -25 1 -45 3 -45 1 0 53 7 116 15 111 15 141 12 141 -16 0 -4
-67 -126 -150 -271 -82 -144 -148 -263 -147 -264 1 -1 89 9 196 22 107 14 200
23 208 20 15 -6 18 -42 3 -51 -6 -4 -114 -19 -241 -34 -262 -31 -274 -29 -244
30 10 19 51 93 92 166 44 77 72 137 67 144 -4 7 -3 9 4 6 6 -4 23 17 41 48 34
60 37 70 19 59 -7 -4 -10 -4 -6 0 3 4 10 8 15 8 9 1 57 68 51 73 -2 2 -33 0
-68 -5 -36 -5 -86 -10 -112 -10 l-48 0 0 94 c0 65 4 97 13 103 12 8 492 70
558 72 25 1 39 -4 43 -15z m-679 -199 c-1 -210 -16 -581 -25 -596 -11 -18
-210 -42 -227 -27 -18 15 -16 36 5 46 9 5 51 13 93 16 l75 7 12 311 c7 171 11
312 9 313 -4 4 -107 -11 -112 -17 -3 -3 -10 -124 -16 -269 -6 -145 -12 -270
-14 -276 -3 -7 -16 -13 -31 -13 l-26 0 7 243 c4 133 10 271 14 307 l6 65 75
12 c41 6 93 10 115 10 l40 -2 0 -130z m-319 81 c9 -23 -14 -485 -26 -544 -32
-148 -163 -236 -350 -236 -73 0 -93 4 -136 27 -63 32 -109 85 -123 143 -6 23
-11 86 -11 138 0 57 -4 96 -10 96 -5 0 -10 9 -10 20 0 11 -4 20 -10 20 -5 0
-10 5 -10 10 0 6 7 10 15 10 9 0 16 -10 16 -27 3 -53 17 82 18 172 1 50 5 96
10 103 8 13 196 42 220 34 6 -2 11 -14 11 -27 0 -26 -10 -29 -116 -40 l-61 -7
-6 -150 c-15 -339 -7 -384 75 -431 103 -61 280 -36 359 50 61 65 70 115 83
451 l6 142 -58 -6 c-31 -4 -58 -8 -59 -9 -2 -1 -7 -82 -12 -181 -12 -216 -31
-295 -86 -343 -43 -37 -93 -41 -143 -11 -43 27 -52 53 -54 173 l-2 102 -6 -90
-6 -90 -2 93 c-2 72 2 97 13 108 10 10 15 35 15 69 0 55 13 71 46 58 13 -5 14
-26 8 -169 -6 -143 -5 -166 10 -189 11 -17 25 -25 44 -24 24 2 24 2 4 6 -12 2
-20 8 -17 13 3 5 18 7 34 4 21 -4 30 -1 35 11 3 9 3 22 -1 27 -3 6 -1 8 5 4
17 -11 31 77 43 279 6 105 14 193 17 197 8 8 120 25 180 27 29 1 44 -4 48 -13z
m604 -36 c0 -5 -7 -10 -15 -10 -8 0 -15 5 -15 10 0 6 7 10 15 10 8 0 15 -4 15
-10z m821 -60 c26 -36 48 -74 48 -85 1 -21 -121 -115 -149 -115 -13 0 -104
113 -117 146 -2 6 11 24 29 38 82 64 114 85 127 83 8 -1 36 -31 62 -67z m-642
14 c2 -2 -8 -4 -22 -4 -15 0 -30 0 -34 -1 -4 0 -9 4 -11 9 -3 10 57 6 67 -4z
m417 -351 c250 -509 271 -558 284 -635 33 -210 -86 -431 -285 -529 -67 -33
-131 -51 -410 -114 -181 -40 -532 -119 -780 -175 -862 -194 -798 -183 -793
-148 4 26 3 26 298 92 444 99 935 209 1140 256 118 27 269 61 335 75 185 41
294 106 370 221 70 105 95 254 61 365 -8 25 -109 241 -225 479 -116 237 -211
438 -211 445 0 12 14 22 33 24 4 1 87 -160 183 -356z m-2124 322 c149 -50 228
-168 228 -339 0 -90 -22 -173 -61 -227 l-22 -31 62 -62 c33 -34 61 -66 61 -73
0 -22 -28 -32 -129 -44 l-104 -12 -29 32 -28 32 -56 -17 c-83 -24 -224 -17
-289 15 -64 32 -124 93 -155 156 -19 40 -25 71 -28 151 -4 105 5 144 34 144
21 0 24 -15 27 -131 3 -119 19 -163 83 -218 58 -52 114 -71 197 -69 71 1 71 1
22 8 -27 4 -43 8 -35 9 13 1 13 2 0 11 -26 16 12 22 117 16 54 -2 108 -5 119
-5 12 -1 28 -9 35 -18 13 -15 12 -15 -9 -4 -34 18 -36 9 -4 -22 25 -23 32 -25
81 -19 l54 7 -45 45 c-24 25 -47 57 -50 72 -3 15 -1 25 3 22 12 -7 58 70 75
125 7 25 14 73 14 107 0 121 -46 207 -138 262 -44 25 -55 27 -157 27 -101 0
-115 -2 -168 -29 -32 -15 -82 -53 -112 -83 -46 -47 -57 -54 -70 -43 -23 19
-19 34 31 89 103 115 300 166 446 116z m1368 -76 c0 -5 7 -9 15 -9 8 0 15 -4
15 -10 0 -5 -4 -10 -9 -10 -6 0 -13 5 -16 10 -14 23 -35 9 -36 -22 0 -18 -3
-26 -6 -18 -4 8 -12 20 -19 25 -8 6 -9 17 -4 30 5 11 9 14 9 8 1 -18 21 -16
21 2 0 9 6 12 15 9 8 -4 15 -10 15 -15z m-1403 -102 c45 -28 86 -102 81 -146
-2 -21 -8 -26 -30 -26 -14 1 -24 -3 -22 -7 3 -4 -4 -8 -15 -8 -23 0 -28 -22
-8 -37 6 -6 29 -9 50 -7 20 2 37 0 37 -4 0 -4 20 -6 45 -4 35 3 45 1 45 -11 0
-11 -12 -17 -42 -19 -37 -3 -43 -6 -42 -25 0 -13 -3 -23 -7 -23 -5 0 -14 10
-21 23 l-12 22 -6 -25 c-8 -35 -43 -38 -64 -6 -13 20 -25 26 -54 26 -20 0 -47
-3 -60 -6 l-23 -7 21 -22 c19 -20 26 -21 59 -13 31 8 45 6 71 -9 18 -10 44
-24 58 -32 l25 -13 -34 -32 c-40 -38 -60 -36 -90 9 -23 32 -23 33 -34 12 -9
-19 -19 -22 -75 -22 -36 1 -74 5 -84 10 -15 6 -17 5 -11 -5 5 -9 4 -11 -4 -6
-6 4 -9 11 -6 16 3 5 -4 14 -16 20 -11 7 -32 36 -46 67 -21 45 -24 65 -21 116
3 34 9 71 13 81 6 15 5 17 -5 11 -9 -5 -11 -4 -6 4 4 6 12 9 17 6 5 -4 9 -2 9
4 0 5 11 23 25 39 13 16 22 32 20 36 -3 3 -2 4 1 1 4 -2 21 3 38 12 78 40 159
40 223 0z m62 -16 c8 -5 9 -11 3 -15 -5 -3 -15 1 -22 9 -14 16 -3 20 19 6z
m634 -31 c-1 -14 -4 -46 -8 -72 -6 -44 -9 -48 -34 -48 -15 0 -32 -5 -39 -12
-9 -9 -12 7 -12 73 0 47 2 88 5 91 3 2 24 2 47 -2 38 -5 43 -8 41 -30z m501 6
c-6 -16 -8 -16 -16 -3 -5 9 -15 14 -23 11 -8 -4 -15 -1 -15 4 0 12 41 21 53
12 4 -4 5 -15 1 -24z m-1064 10 c0 -11 -19 -15 -25 -6 -3 5 1 10 9 10 9 0 16
-2 16 -4z m-1060 -226 c12 -12 20 -33 20 -55 0 -72 -86 -104 -129 -49 -28 35
-26 69 4 99 30 31 77 33 105 5z m579 -12 c0 -27 -2 -29 -8 -13 -5 11 -6 26 -4
33 8 21 13 13 12 -20z m-350 -175 c58 -43 77 -131 41 -191 -79 -129 -280 -69
-267 79 7 86 73 143 156 135 24 -2 55 -12 70 -23z m2636 -55 c3 -7 1 -89 -3
-183 l-7 -170 -25 0 -25 0 4 154 4 154 -24 -6 c-13 -4 -36 -7 -50 -7 l-27 0
-7 -186 c-4 -102 -6 -187 -4 -188 2 -2 30 0 63 4 69 10 88 5 84 -24 -3 -19
-13 -22 -93 -32 -69 -9 -93 -9 -103 0 -10 10 -10 57 -2 236 5 123 14 228 18
232 7 7 112 24 170 27 12 0 25 -5 27 -11z m-277 -83 c1 -22 -1 -65 -5 -95 l-8
-55 -90 -12 c-50 -6 -91 -12 -92 -12 -2 -1 -3 -10 -3 -22 0 -20 3 -21 85 -14
67 6 86 5 90 -6 3 -8 1 -50 -3 -94 l-7 -80 -85 -10 c-77 -9 -85 -12 -88 -32
-4 -26 2 -27 103 -14 33 5 66 6 73 3 8 -3 12 -29 12 -81 0 -47 -5 -83 -12 -93
-10 -11 -63 -21 -195 -37 -101 -12 -187 -19 -193 -16 -13 8 -13 107 2 414 7
159 16 254 22 257 23 8 242 31 254 26 7 -2 12 -14 10 -26 -3 -19 -14 -23 -106
-36 -70 -10 -106 -20 -112 -30 -4 -8 -11 -136 -15 -284 l-8 -269 34 6 c19 4
77 11 129 17 132 15 130 15 130 60 0 38 -1 39 -27 34 -16 -3 -55 -6 -88 -7
l-60 -2 -3 54 c-5 95 -4 97 90 107 l83 9 3 39 3 38 -85 -7 c-85 -7 -86 -7 -87
17 -3 49 3 113 12 124 5 7 48 15 94 19 l85 7 0 58 c0 74 7 92 34 88 17 -2 22
-11 24 -43z m-539 -37 c17 -42 95 -628 85 -637 -13 -12 -171 -29 -186 -20 -7
5 -19 62 -28 136 l-16 128 -46 -139 c-26 -77 -52 -142 -60 -146 -7 -4 -39 -10
-70 -14 l-57 -6 -19 52 c-11 29 -30 89 -43 132 -12 44 -24 75 -26 70 -2 -5
-13 -68 -26 -139 l-23 -130 -93 -12 c-99 -13 -122 -8 -115 25 2 9 24 132 49
272 25 140 51 257 57 261 18 11 38 -1 38 -24 0 -12 -19 -124 -41 -250 -23
-125 -40 -229 -38 -231 2 -2 25 -2 50 1 l46 5 27 162 c14 88 26 175 26 192 0
40 25 64 44 43 7 -8 37 -90 65 -184 29 -93 57 -174 61 -179 5 -5 20 -6 34 -2
23 6 31 24 86 199 34 105 63 198 65 205 3 6 10 12 18 12 23 0 37 -23 37 -59 0
-34 26 -265 35 -306 4 -17 11 -20 50 -17 25 2 45 9 45 16 0 6 -18 130 -39 276
l-38 265 -44 -3 c-71 -4 -85 -10 -98 -39 -18 -38 -78 -231 -86 -276 -8 -39
-32 -55 -50 -35 -7 7 -20 42 -29 78 -10 36 -29 102 -43 148 l-25 83 -94 -7
c-91 -6 -94 -6 -94 14 0 29 8 32 121 45 82 8 102 8 109 -3 4 -7 20 -56 35
-109 15 -53 30 -100 33 -105 3 -5 23 47 45 115 21 68 41 126 44 129 4 4 150
27 191 29 15 1 26 -7 31 -21z m-753 -80 c13 -21 -9 -646 -24 -659 -4 -4 -49
-12 -101 -19 -102 -12 -126 -5 -105 28 8 12 33 19 86 26 l76 8 6 192 c3 105 9
233 12 284 l6 94 -48 -7 c-27 -4 -52 -10 -57 -14 -4 -4 -12 -115 -18 -247 -8
-187 -14 -242 -25 -254 -14 -13 -17 -13 -30 5 -12 15 -14 35 -10 80 3 33 9
149 12 257 4 108 10 201 13 207 4 5 40 14 81 19 107 13 118 13 126 0z m-1290
-101 c54 -45 99 -89 99 -97 0 -19 -201 -144 -220 -136 -12 4 -15 33 -15 154 0
82 3 152 7 155 14 15 34 3 129 -76z m1042 23 c1 -30 -1 -73 -5 -95 l-9 -40
-62 -9 -62 -10 -1 -65 c-2 -170 -15 -400 -22 -407 -11 -11 -185 -32 -198 -23
-9 5 -10 67 -5 237 l7 231 -63 -2 -63 -2 -3 86 c-2 68 1 89 13 99 12 10 18 10
31 -1 13 -11 15 -26 11 -73 l-5 -59 63 7 c56 6 64 4 69 -12 3 -9 2 -116 -4
-237 -5 -120 -8 -220 -7 -221 4 -3 97 13 102 17 2 3 8 107 14 231 5 125 12
231 15 236 3 5 33 12 66 16 l60 7 0 41 0 41 -82 -6 c-46 -4 -113 -9 -150 -13
-58 -6 -68 -5 -74 10 -4 10 -3 21 2 26 11 11 283 49 329 47 29 -2 30 -4 33
-57z m-774 -2 c3 -13 14 -149 26 -303 27 -354 41 -408 134 -512 55 -61 131
-113 206 -140 54 -20 73 -44 52 -65 -10 -10 -120 28 -169 58 -64 40 -134 108
-173 167 -61 93 -78 160 -95 380 -8 106 -20 243 -26 304 -6 62 -7 117 -4 123
12 19 44 11 49 -12z m2527 -254 c40 -20 67 -80 47 -101 -19 -19 -42 -8 -54 26
-13 33 -43 43 -76 27 -49 -24 -28 -101 31 -108 18 -2 26 -9 26 -23 0 -33 -64
-33 -103 0 -103 87 9 242 129 179z m316 -406 c14 -13 23 -33 23 -50 0 -36 -40
-78 -75 -78 -14 0 -37 11 -50 25 -69 68 31 170 102 103z m-588 -112 c15 -18
27 -231 14 -239 -6 -4 -60 -10 -121 -13 -91 -6 -112 -4 -117 7 -12 32 -21 211
-10 225 6 9 45 17 110 23 55 4 103 9 106 10 4 0 12 -5 18 -13z m314 -36 c78
-87 -23 -227 -128 -177 -40 19 -75 70 -75 108 0 39 41 92 80 105 45 15 88 2
123 -36z m-1857 -245 c34 -105 59 -194 57 -199 -6 -9 -293 1 -319 11 -8 3 -14
9 -14 14 0 5 41 90 90 190 69 137 95 180 107 177 13 -2 34 -55 79 -193z"/>
<path d="M2810 5187 c-5 -15 -14 -38 -19 -51 l-10 -24 51 13 c27 8 52 15 54
18 2 2 -12 18 -31 37 l-34 33 -11 -26z"/>
<path d="M4752 5034 c-43 -30 -16 -104 38 -104 51 0 71 69 30 102 -27 22 -39
22 -68 2z"/>
<path d="M2510 4915 l-34 -35 38 -39 39 -40 38 37 39 36 -37 38 c-20 21 -40
38 -43 38 -3 0 -21 -16 -40 -35z"/>
<path d="M4526 4183 c-6 -14 -5 -15 5 -6 7 7 10 15 7 18 -3 3 -9 -2 -12 -12z"/>
<path d="M4458 4109 c7 -9 9 -25 6 -35 -9 -25 0 -16 16 16 7 14 9 22 5 18 -5
-4 -15 -2 -24 5 -14 10 -14 10 -3 -4z"/>
<path d="M5132 4336 c-18 -13 -35 -26 -38 -29 -8 -7 45 -77 58 -77 5 0 25 12
43 26 l34 25 -27 39 c-15 22 -29 39 -32 39 -3 0 -20 -10 -38 -23z"/>
<path d="M2800 3680 c0 -6 7 -10 15 -10 8 0 15 2 15 4 0 2 -7 6 -15 10 -8 3
-15 1 -15 -4z"/>
<path d="M2750 3670 c8 -5 22 -9 30 -9 10 0 8 3 -5 9 -27 12 -43 12 -25 0z"/>
<path d="M2697 4126 c-21 -8 -48 -22 -59 -33 -27 -24 -58 -90 -58 -127 0 -43
21 -103 42 -123 19 -17 19 -17 3 25 -21 52 -9 72 41 72 19 0 34 5 34 11 0 7
-11 9 -29 6 -25 -5 -28 -4 -23 19 2 13 8 24 13 24 5 0 9 9 9 19 0 37 108 83
138 59 12 -10 14 -10 8 0 -4 7 -1 12 8 12 8 0 22 -12 31 -27 15 -27 16 -27 9
-3 -9 35 -24 51 -61 67 -40 16 -57 16 -106 -1z"/>
<path d="M2733 3953 c9 -2 25 -2 35 0 9 3 1 5 -18 5 -19 0 -27 -2 -17 -5z"/>
<path d="M1862 3867 c-15 -17 1 -42 23 -33 18 6 17 37 -1 43 -6 2 -16 -2 -22
-10z"/>
<path d="M2018 3660 c-26 -27 -30 -36 -25 -68 8 -46 38 -72 84 -72 88 0 115
116 36 158 -35 19 -63 14 -95 -18z"/>
<path d="M1850 3285 c0 -41 2 -75 4 -75 3 0 28 14 56 32 l52 32 -38 34 c-74
63 -74 63 -74 -23z"/>
<path d="M4977 2703 c-4 -3 -7 -17 -7 -30 0 -18 6 -23 24 -23 13 0 27 7 30 16
11 28 -27 57 -47 37z"/>
<path d="M4298 2553 c-14 -3 -18 -15 -18 -46 0 -72 8 -87 45 -87 18 0 47 3 64
6 27 6 31 11 31 39 0 18 -3 47 -6 64 -6 30 -9 31 -53 30 -25 -1 -54 -3 -63 -6z"/>
<path d="M4652 2554 c-43 -30 -17 -104 36 -104 27 0 62 33 62 58 0 22 -40 62
-61 62 -8 0 -25 -7 -37 -16z"/>
<path d="M2762 2315 l-61 -124 32 -5 c17 -3 67 -7 110 -9 61 -3 77 -1 73 9 -3
7 -21 65 -41 128 -20 64 -39 117 -43 120 -5 3 -36 -51 -70 -119z"/>
</g>
</svg>
