<?xml version="1.0" standalone="no"?>
<!DOCTYPE svg PUBLIC "-//W3C//DTD SVG 20010904//EN"
 "http://www.w3.org/TR/2001/REC-SVG-20010904/DTD/svg10.dtd">
<svg version="1.0" xmlns="http://www.w3.org/2000/svg"
 width="740.000000pt" height="740.000000pt" viewBox="0 0 740.000000 740.000000"
 preserveAspectRatio="xMidYMid meet">

<g transform="translate(0.000000,740.000000) scale(0.100000,-0.100000)"
fill="#000000" stroke="none">
<path d="M0 3700 l0 -3700 3700 0 3700 0 0 3700 0 3700 -3700 0 -3700 0 0
-3700z m2901 1513 c44 -42 79 -83 79 -90 0 -18 -25 -28 -149 -58 -143 -36
-146 -32 -91 106 23 57 44 107 46 111 13 20 42 2 115 -69z m1958 -158 c20 -20
26 -35 26 -71 0 -39 -5 -50 -30 -70 -67 -53 -165 -11 -165 71 0 46 13 70 48
90 36 20 90 12 121 -20z m-493 -25 c75 -26 141 -69 198 -130 52 -55 122 -189
113 -214 -13 -35 -38 -14 -78 65 -50 100 -113 165 -204 210 -60 29 -80 34
-164 37 l-96 4 -495 -137 c-1031 -285 -1241 -345 -1282 -366 -61 -31 -141
-111 -171 -172 -41 -80 -47 -140 -32 -317 7 -85 10 -161 8 -167 -7 -19 -41
-16 -47 5 -3 9 -10 90 -16 179 -9 117 -9 176 -1 213 26 119 119 244 227 302
52 28 156 59 939 275 270 74 555 153 635 176 80 22 170 46 200 53 71 17 190
10 266 -16z m-1749 -82 c35 -34 63 -66 63 -70 0 -11 -115 -128 -126 -128 -5 0
-39 29 -74 65 l-64 65 64 65 c35 36 67 65 69 65 3 0 34 -28 68 -62z m2193
-373 c9 -11 -15 -62 -134 -271 -80 -141 -146 -259 -146 -261 0 -3 15 -3 33 1
17 3 72 10 121 16 119 13 120 12 111 -104 -8 -102 -17 -121 -47 -105 -18 10
-20 18 -16 80 6 81 20 76 -151 55 -62 -8 -120 -12 -127 -9 -19 7 -18 38 2 69
9 14 18 41 20 61 3 36 24 72 24 41 0 -9 -4 -20 -10 -23 -5 -3 -10 -11 -10 -18
0 -17 15 2 48 63 16 30 68 120 115 200 58 99 81 146 72 148 -8 2 -108 -8 -224
-22 -115 -14 -214 -26 -220 -26 -6 0 -11 -20 -11 -46 l0 -46 38 6 c153 26 222
24 222 -4 0 -4 -67 -126 -150 -271 -82 -145 -148 -264 -147 -266 2 -1 90 9
197 23 107 13 200 22 207 20 15 -6 17 -42 3 -51 -6 -4 -114 -19 -241 -34 -262
-31 -274 -29 -244 30 32 62 248 443 268 472 10 16 18 30 16 31 -2 2 -47 -1
-100 -7 -52 -6 -103 -8 -112 -4 -14 5 -17 22 -17 97 0 84 1 91 23 99 12 5 108
19 212 31 105 12 215 26 245 30 87 12 117 11 130 -5z m-675 -200 c-1 -208 -16
-581 -25 -595 -12 -20 -211 -42 -228 -26 -7 7 -10 20 -7 29 7 17 27 23 121 32
l60 7 12 310 c7 171 11 312 10 313 -5 4 -108 -11 -113 -17 -4 -3 -11 -124 -16
-269 -6 -145 -12 -270 -14 -276 -3 -7 -16 -13 -31 -13 l-27 0 7 213 c10 339
15 395 37 402 30 10 141 23 179 21 l35 -1 0 -130z m-319 81 c9 -23 -14 -485
-26 -544 -32 -146 -162 -236 -345 -236 -98 -1 -169 27 -220 86 -53 62 -59 107
-51 376 4 129 10 240 12 247 7 17 31 23 142 31 l92 7 0 -26 c0 -28 -8 -31
-116 -42 l-61 -7 -6 -150 c-11 -250 -9 -318 12 -365 47 -101 225 -132 362 -62
52 26 105 92 119 146 8 35 26 312 30 481 0 9 -14 11 -57 6 -32 -4 -59 -8 -60
-9 -2 -1 -7 -82 -12 -181 -7 -132 -15 -197 -31 -246 -34 -111 -109 -155 -191
-112 -57 29 -69 104 -53 332 7 94 20 116 51 91 11 -10 12 -41 7 -170 -6 -138
-5 -161 10 -183 11 -18 25 -26 44 -25 17 1 20 3 9 6 -9 2 -15 9 -12 14 4 5 14
5 26 -2 43 -23 72 106 85 379 4 98 10 145 18 148 17 7 133 21 179 23 24 1 40
-4 43 -13z m1431 -105 c34 -47 50 -78 45 -87 -12 -21 -134 -104 -153 -104 -19
0 -111 121 -113 148 -1 19 133 123 153 120 8 -2 39 -36 68 -77z m-255 -278
c180 -370 277 -570 289 -601 21 -53 29 -151 19 -224 -28 -201 -184 -373 -390
-432 -47 -13 -520 -120 -1603 -362 -137 -31 -255 -53 -263 -50 -23 9 -13 38
16 47 14 4 126 30 250 58 124 28 457 103 740 166 283 64 596 134 695 157 192
42 274 76 353 144 54 46 111 134 134 206 20 67 24 181 7 243 -6 22 -107 237
-225 478 -118 241 -214 444 -214 452 0 12 13 22 33 24 5 1 76 -137 159 -306z
m-2157 286 c118 -22 207 -87 254 -188 20 -45 27 -75 29 -148 4 -102 -11 -169
-55 -237 l-25 -39 61 -61 c34 -34 61 -66 61 -73 0 -22 -28 -32 -129 -44 l-104
-13 -27 33 -28 32 -57 -16 c-83 -24 -224 -18 -287 13 -62 31 -121 89 -155 154
-23 45 -28 69 -31 154 -4 105 5 144 34 144 21 0 24 -15 27 -131 3 -119 19
-163 83 -219 67 -58 115 -73 213 -67 47 3 108 13 134 22 l49 17 36 -35 c36
-34 39 -35 90 -29 l52 7 -45 52 c-25 28 -45 56 -45 62 0 6 13 30 30 52 80 111
80 304 0 402 -18 20 -53 49 -78 65 -44 25 -55 27 -157 27 -101 0 -115 -2 -170
-29 -35 -17 -82 -53 -112 -84 -44 -46 -55 -53 -68 -42 -23 19 -18 34 31 89 58
64 163 118 254 130 36 5 68 9 71 10 3 0 32 -4 64 -10z m-7 -179 c49 -22 75
-49 97 -99 30 -67 11 -108 -38 -82 -24 12 -64 8 -81 -9 -16 -16 -72 -12 -96 8
-24 19 -20 42 6 42 8 0 14 7 14 15 0 8 4 15 9 15 5 0 18 3 28 7 16 6 16 5 4
-10 -7 -9 -10 -18 -5 -18 38 -6 54 -5 54 2 0 5 7 5 17 2 12 -5 14 -3 9 8 -4 8
0 5 9 -6 17 -20 17 -20 10 5 -24 84 -137 103 -220 38 -32 -25 -64 -91 -65
-132 0 -44 21 -104 43 -123 11 -10 17 -12 13 -5 -4 7 -2 12 5 12 7 0 3 9 -9
20 -25 23 -28 43 -9 57 20 16 216 36 231 24 7 -6 17 -7 21 -3 5 4 5 1 1 -6 -5
-8 2 -16 18 -22 14 -5 26 -14 26 -20 0 -6 -4 -9 -8 -6 -4 2 -8 -8 -7 -22 0
-38 -36 -42 -59 -8 -13 20 -25 26 -54 26 -20 0 -47 -3 -60 -6 l-23 -7 20 -21
c17 -18 30 -21 76 -19 45 1 56 -1 51 -12 -3 -8 -1 -17 4 -20 6 -4 10 2 10 11
0 12 3 15 10 8 16 -16 -1 -54 -26 -60 -24 -6 -60 18 -50 34 2 4 -4 13 -15 20
-11 7 -19 8 -19 2 0 -5 5 -10 10 -10 14 0 13 -33 -2 -48 -7 -7 -37 -12 -68
-12 -120 0 -198 94 -187 228 13 163 167 265 305 202z m331 -67 c-1 -17 -3 -21
-6 -10 -2 9 -9 17 -14 17 -6 0 -7 5 -4 10 12 19 25 10 24 -17z m323 -5 c-9 -9
-12 -7 -12 12 0 19 3 21 12 12 9 -9 9 -15 0 -24z m-1552 -198 c12 -12 20 -33
20 -55 0 -72 -86 -104 -129 -49 -28 35 -26 69 4 99 30 31 77 33 105 5z m1020
10 c0 -5 -2 -10 -4 -10 -3 0 -8 5 -11 10 -3 6 -1 10 4 10 6 0 11 -4 11 -10z
m-791 -197 c58 -43 77 -131 41 -191 -79 -129 -280 -69 -267 79 7 86 73 143
156 135 24 -2 55 -12 70 -23z m578 -43 c-1 -16 -8 -20 -37 -20 -26 0 -31 3
-20 10 8 5 11 10 7 10 -21 0 7 20 28 20 18 0 23 -5 22 -20z m98 10 c-3 -5 -10
-10 -16 -10 -5 0 -9 5 -9 10 0 6 7 10 16 10 8 0 12 -4 9 -10z m-35 -10 c0 -5
-8 -10 -17 -10 -15 0 -16 2 -3 10 19 12 20 12 20 0z m1996 -14 c3 -8 2 -90 -3
-182 l-8 -169 -25 0 -25 0 3 151 4 152 -49 -5 c-26 -3 -49 -6 -49 -7 -1 0 -4
-85 -8 -187 l-7 -186 63 9 c75 10 90 6 86 -24 -3 -21 -11 -24 -93 -35 -73 -10
-93 -9 -103 1 -11 11 -12 55 -5 235 5 127 13 225 19 231 10 10 102 26 167 29
15 0 30 -5 33 -13z m-278 -103 c2 -34 -1 -77 -6 -95 -8 -33 -9 -33 -90 -45
-89 -12 -102 -17 -102 -39 0 -15 14 -16 103 -5 78 10 82 3 71 -102 l-9 -82
-85 -10 c-78 -9 -85 -12 -88 -33 -3 -23 -2 -23 60 -16 35 5 77 8 93 9 l30 0 3
-86 c2 -61 -1 -89 -10 -96 -16 -13 -373 -57 -388 -48 -6 4 -10 50 -10 111 0
157 20 548 29 557 12 12 254 38 264 28 5 -5 7 -17 5 -27 -3 -19 -16 -23 -152
-41 -53 -7 -60 -11 -67 -34 -3 -14 -10 -142 -14 -284 l-7 -257 28 6 c16 3 72
10 124 16 143 16 140 15 140 56 l0 37 -89 -7 c-69 -6 -89 -4 -93 6 -3 7 -3 42
1 78 l6 65 55 8 c132 19 120 14 120 53 l0 36 -85 -7 c-100 -9 -102 -7 -89 88
l9 62 90 10 90 10 3 60 c3 78 7 87 34 83 21 -3 23 -9 26 -65z m-541 -5 c12
-17 97 -622 90 -641 -6 -17 -177 -40 -192 -26 -5 5 -17 65 -25 132 l-16 122
-43 -130 c-24 -71 -48 -135 -55 -142 -6 -7 -40 -13 -75 -15 l-65 -3 -42 130
-41 129 -13 -74 c-7 -41 -17 -104 -24 -140 l-11 -65 -94 -13 c-78 -11 -96 -11
-107 0 -11 11 -4 61 36 282 27 148 53 273 59 279 16 16 41 -1 41 -29 0 -14
-18 -125 -40 -246 -22 -120 -38 -222 -36 -227 3 -4 24 -5 48 -2 l43 6 27 155
c14 85 27 174 27 196 1 27 6 44 16 48 19 7 45 -3 45 -18 0 -17 101 -340 110
-349 4 -4 18 -5 32 -2 22 6 31 27 90 208 61 186 68 202 90 202 19 0 23 -6 26
-35 4 -51 32 -291 38 -320 4 -23 8 -25 50 -21 45 3 46 4 41 35 -3 17 -19 135
-37 261 -17 127 -35 237 -39 245 -8 14 -70 16 -113 4 -20 -6 -44 -68 -92 -232
-30 -105 -36 -117 -57 -117 -23 0 -20 -8 -100 278 l-10 38 -95 -7 c-91 -7 -94
-6 -94 14 0 32 29 41 135 44 l98 3 33 -110 c18 -60 33 -112 34 -115 0 -3 18
50 39 118 21 68 42 126 45 130 7 6 137 27 192 31 12 0 26 -5 31 -11z m-744
-91 c8 -21 -20 -648 -30 -658 -4 -4 -50 -13 -102 -19 -99 -12 -118 -8 -107 28
6 16 19 21 85 26 l79 7 6 227 c4 125 9 254 12 286 6 58 6 59 -17 53 -13 -4
-36 -7 -50 -7 -16 0 -30 -7 -33 -17 -4 -9 -11 -120 -16 -247 -8 -181 -13 -234
-25 -245 -13 -14 -17 -14 -30 0 -13 13 -14 40 -5 215 5 109 10 226 10 259 0
33 4 66 8 72 4 7 39 17 77 22 104 13 132 12 138 -2z m-1313 -86 c47 -37 94
-78 105 -91 l20 -22 -27 -21 c-59 -47 -188 -119 -203 -113 -12 4 -15 30 -15
154 0 82 3 152 7 155 14 14 31 5 113 -62z m1055 -28 c0 -50 -3 -94 -6 -97 -3
-4 -33 -10 -65 -14 l-59 -7 -6 -115 c-4 -63 -7 -164 -8 -225 -1 -60 -5 -116
-10 -124 -6 -9 -43 -19 -101 -26 -106 -13 -124 -6 -116 48 3 18 8 118 11 223
l6 192 -65 -5 -66 -6 0 90 c0 95 11 122 46 109 13 -5 16 -18 12 -72 l-4 -65
65 3 66 3 -3 -170 c-1 -93 -5 -198 -8 -232 l-6 -63 44 0 c24 0 48 4 54 8 11 7
22 172 25 362 1 47 6 93 10 102 6 12 28 19 69 24 l60 7 0 40 0 40 -77 -7
c-242 -21 -233 -21 -233 2 0 11 5 24 11 28 16 10 266 42 314 40 l40 -1 0 -92z
m-771 35 c3 -13 14 -149 26 -303 27 -356 40 -408 137 -515 55 -61 134 -115
207 -140 50 -18 68 -42 48 -62 -10 -10 -102 21 -161 55 -63 36 -138 105 -176
163 -64 97 -82 166 -100 384 -9 107 -20 246 -25 308 -6 63 -8 118 -5 123 12
18 45 9 49 -13z m2527 -254 c37 -19 66 -79 48 -100 -19 -23 -38 -16 -53 21
-13 30 -20 35 -48 35 -41 0 -58 -15 -58 -51 0 -30 16 -47 57 -58 35 -9 44 -46
14 -56 -49 -15 -131 51 -131 107 0 89 91 144 171 102z m314 -409 c14 -13 25
-31 25 -39 0 -30 -23 -65 -51 -77 -24 -9 -33 -9 -54 5 -50 33 -55 91 -12 121
31 22 65 18 92 -10z m-586 -109 c15 -18 27 -231 14 -239 -20 -13 -230 -20
-237 -9 -3 6 -9 60 -13 121 -5 91 -3 111 8 116 8 3 57 9 109 14 52 4 98 9 101
10 4 0 12 -5 18 -13z m314 -36 c49 -55 28 -148 -40 -177 -51 -21 -95 -10 -133
34 -28 32 -32 41 -27 80 12 105 128 142 200 63z m-1859 -248 c31 -95 56 -179
56 -188 0 -14 -18 -15 -142 -8 -161 8 -191 14 -181 41 9 23 151 301 170 332
23 36 35 15 97 -177z"/>
<path d="M2810 5187 c-5 -15 -14 -38 -19 -51 l-10 -24 51 13 c27 8 52 15 54
18 2 2 -12 18 -31 37 l-34 33 -11 -26z"/>
<path d="M4747 5032 c-37 -40 -9 -102 46 -102 28 0 57 32 57 62 0 25 -36 58
-63 58 -13 0 -31 -8 -40 -18z"/>
<path d="M2512 4918 l-42 -43 40 -40 40 -40 42 43 43 42 -41 41 -41 41 -41
-44z"/>
<path d="M5128 4331 l-37 -28 25 -36 c14 -21 28 -37 32 -37 4 0 24 11 44 25
l38 25 -28 40 c-15 22 -29 39 -32 39 -3 0 -22 -12 -42 -28z"/>
<path d="M2650 3826 c0 -2 7 -6 15 -10 8 -3 15 -1 15 4 0 6 -7 10 -15 10 -8 0
-15 -2 -15 -4z"/>
<path d="M1862 3867 c-15 -17 1 -42 23 -33 18 6 17 37 -1 43 -6 2 -16 -2 -22
-10z"/>
<path d="M2019 3661 c-56 -57 -23 -141 56 -141 90 0 118 116 38 158 -35 19
-63 14 -94 -17z"/>
<path d="M1860 3280 l0 -70 50 32 50 33 -33 28 c-66 56 -67 56 -67 -23z"/>
<path d="M4970 2696 c-27 -33 18 -72 48 -42 13 13 14 20 6 34 -15 23 -38 26
-54 8z"/>
<path d="M4298 2553 c-14 -3 -18 -15 -18 -46 0 -72 8 -87 45 -87 18 0 47 3 64
6 27 6 31 11 31 39 0 18 -3 47 -6 64 -6 30 -9 31 -53 30 -25 -1 -54 -3 -63 -6z"/>
<path d="M4652 2554 c-42 -29 -18 -104 34 -104 26 0 50 20 59 47 4 17 -1 29
-19 48 -29 29 -43 31 -74 9z"/>
<path d="M2828 2445 c-23 -37 -128 -245 -128 -252 0 -10 208 -28 217 -19 3 2
-15 66 -39 143 -24 76 -47 133 -50 128z"/>
</g>
</svg>
